<mxfile host="app.diagrams.net" modified="2022-10-12T13:08:55.774Z" agent="5.0 (Macintosh; Intel Mac OS X 10_15_7) AppleWebKit/537.36 (KHTML, like Gecko) Chrome/106.0.0.0 Safari/537.36" etag="DcW4AZXUMv8kWbSN2MGE" version="20.4.0" type="github">
  <diagram id="Aw7AStacD8hFAxdcgBaZ" name="第 1 页">
    <mxGraphModel dx="946" dy="614" grid="0" gridSize="10" guides="1" tooltips="1" connect="1" arrows="1" fold="1" page="0" pageScale="1" pageWidth="827" pageHeight="1169" math="0" shadow="0">
      <root>
        <mxCell id="0" />
        <mxCell id="1" parent="0" />
        <mxCell id="1M1EthRp3gkD_bUCgfWn-3" value="" style="rounded=0;whiteSpace=wrap;html=1;" vertex="1" parent="1">
          <mxGeometry x="222" y="79" width="607" height="451" as="geometry" />
        </mxCell>
        <mxCell id="1M1EthRp3gkD_bUCgfWn-4" value="&lt;div&gt;componentsList = [&lt;/div&gt;&lt;div&gt;&amp;nbsp; &amp;nbsp; {id:0,code:&#39;w-text&#39;,icon:&#39;i-text&#39;,label:&#39;文本&#39;,type:&#39;html&#39;,options:{...}}&lt;/div&gt;&lt;div&gt;&amp;nbsp; &amp;nbsp; {id:1,code:&#39;&quot;w-marquee&quot;&#39;,icon:&#39;i-scrollText&#39;,label:&#39;滚动文本&#39;,type:&#39;html&#39;,options:{...}}&lt;/div&gt;&lt;div&gt;&amp;nbsp; &amp;nbsp; ......&lt;/div&gt;&lt;div&gt;&amp;nbsp; &amp;nbsp; {id:6,code:&#39;w-heatmap&#39;,icon:&#39;i-heatMap&#39;,label:&#39;热力图&#39;,type:&#39;html&#39;,options:{...}}&lt;/div&gt;&lt;div&gt;]&lt;/div&gt;" style="text;html=1;strokeColor=none;fillColor=none;align=left;verticalAlign=middle;whiteSpace=wrap;rounded=0;" vertex="1" parent="1">
          <mxGeometry x="234" y="52" width="530" height="165" as="geometry" />
        </mxCell>
      </root>
    </mxGraphModel>
  </diagram>
</mxfile>
